Alien 1979 directors cut DVDRip Xvid AC3-Atilla82


[img]http://www.pohrani.com/f/3n/vd/4NG23Js8/alienposter1979.jpg[/img]

 
http://www.imdb.com/title/tt0078748/


A mining ship, investigating a suspected SOS, lands on a distant planet. The crew discovers some strange creatures and investigates. 


[b]SCREENSHOTS[/b]
[img]http://www.pohrani.com/f/1z/IA/1MwQ5nUw/alien1979directorscutdvd.jpg[/img]




General
Complete name                            : Alien.1979.directors.cut.DVDRip.Xvid.AC3-Atilla82.avi
Format                                   : AVI
Format/Info                              : Audio Video Interleave
File size                                : 1.18 GiB
Duration                                 : 1h 55mn
Overall bit rate                         : 1 453 Kbps
Movie name                               : Alien.1979.directors.cut.DVDRip.Xvid.AC3-Atilla82
Director                                 : Atilla82
Writing application                      : VirtualDubMod 1.5.10.2 (build 2540/release)
Writing library                          : VirtualDubMod build 2540/release

Video
ID                                       : 0
Format                                   : MPEG-4 Visual
Format profile                           : Advanced Simple@L5
Format settings, BVOP                    : No
Format settings, QPel                    : Yes
Format settings, GMC                     : No warppoints
Format settings, Matrix                  : Default (MPEG)
Codec ID                                 : XVID
Codec ID/Hint                            : XviD
Duration                                 : 1h 55mn
Bit rate                                 : 995 Kbps
Width                                    : 720 pixels
Height                                   : 320 pixels
Display aspect ratio                     : 2.25:1
Frame rate                               : 25.000 fps
Color space                              : YUV
Chroma subsampling                       : 4:2:0
Bit depth                                : 8 bits
Scan type                                : Progressive
Compression mode                         : Lossy
Bits/(Pixel*Frame)                       : 0.173
Stream size                              : 824 MiB (68%)
Writing library                          : XviD 64

Audio
ID                                       : 1
Format                                   : AC-3
Format/Info                              : Audio Coding 3
Mode extension                           : CM (complete main)
Codec ID                                 : 2000
Duration                                 : 1h 55mn
Bit rate mode                            : Constant
Bit rate                                 : 448 Kbps
Channel(s)                               : 6 channels
Channel positions                        : Front: L C R, Side: L R, LFE
Sampling rate                            : 48.0 KHz
Bit depth                                : 16 bits
Compression mode                         : Lossy
Stream size                              : 371 MiB (31%)
Alignment                                : Split accross interleaves
Interleave, duration                     : 40 ms (1.00 video frame)
Interleave, preload duration             : 500 ms

